<?xml version="1.0" standalone="no"?>
<!DOCTYPE svg PUBLIC "-//W3C//DTD SVG 20010904//EN"
        "http://www.w3.org/TR/2001/REC-SVG-20010904/DTD/svg10.dtd">
<svg version="1.0" xmlns="http://www.w3.org/2000/svg"
     width="50px" height="50px" viewBox="0 0 640.000000 1280.000000"
     preserveAspectRatio="xMidYMid meet">
    <g transform="translate(0.000000,1280.000000) scale(0.100000,-0.100000)"
       fill="#ffffff" stroke="none">
        <path d="M2965 12794 c-33 -3 -145 -11 -250 -19 l-190 -14 -28 -33 c-48 -56
-60 -86 -54 -142 4 -44 10 -55 46 -87 22 -20 41 -45 41 -55 0 -11 -16 -55 -36
-99 -107 -242 -127 -324 -100 -418 16 -56 70 -117 115 -132 16 -5 21 -15 21
-41 0 -76 -241 -3174 -251 -3234 -29 -162 -98 -301 -304 -605 -256 -380 -330
-540 -369 -800 -11 -74 -12 -271 -6 -1110 5 -561 14 -1803 20 -2760 14 -2143
23 -2757 43 -2840 29 -123 59 -162 163 -214 168 -83 419 -134 849 -173 185
-17 863 -17 1060 0 412 35 687 89 817 159 55 30 122 108 154 181 13 29 31 91
39 139 16 93 14 -52 35 2843 6 817 15 1956 19 2532 5 625 5 1083 0 1137 -19
183 -92 402 -200 596 -33 61 -129 213 -212 340 -168 254 -264 434 -290 540
-10 42 -29 238 -47 490 -17 231 -44 600 -60 820 -16 220 -43 589 -60 820 -17
231 -43 588 -58 793 l-28 373 43 32 c61 46 85 96 91 184 7 106 -15 202 -86
386 l-30 77 34 66 c56 108 43 165 -49 218 -33 19 -67 27 -157 36 -118 11 -618
21 -725 14z"/>
    </g>
</svg>
